# xmcd
#
# Track frame offsets: 
#        300
#        17755
#        32555
#        39862
#        52932
#        63617
#        73827
#        95462
#        113280
#        131475
#        146225
#        155032
#        168307
#        182825
#        194400
#        208405
#        213490
#        222275
#        233640
#        246912
#
# Disc length: 3448 seconds
#
# Revision: 6
# Processed by: cddbd v1.5PL3 Copyright (c) Steve Scherf et al.
# Submitted via: ExactAudioCopy v0.95a3
#
DISCID=2a0d7414
DTITLE=Nobuo Uematsu - Final Fantasy VI (OST) [CD2]
DYEAR=1994
DGENRE=Game
TTITLE0=Tina
TTITLE1=Coin Song
TTITLE2=Techno de Chocobo
TTITLE3=Forever Rachel
TTITLE4=Slam Shuffle
TTITLE5=Spinach Rag
TTITLE6=Overture
TTITLE7=Aria Di Mezzo Carattere
TTITLE8=The Wedding Waltz - Duel
TTITLE9=Grand Finale?
TTITLE10=Setzer
TTITLE11=Johnny C Bad
TTITLE12=The Empire "Gestahl"
TTITLE13=Devil's Lab
TTITLE14=Blackjack
TTITLE15=Unknown Track
TTITLE16=Mog
TTITLE17=Stragus
TTITLE18=Relm
TTITLE19=Another World of Beasts
EXTD=ID3G:   0
EXTT0=
EXTT1=
EXTT2=
EXTT3=
EXTT4=
EXTT5=
EXTT6=
EXTT7=
EXTT8=
EXTT9=
EXTT10=
EXTT11=
EXTT12=
EXTT13=
EXTT14=
EXTT15=
EXTT16=
EXTT17=
EXTT18=
EXTT19=
PLAYORDER=
